# xmcd
#
# Track frame offsets:
#	150
#	21452
#	34007
#	55264
#	72252
#	85625
#	107385
#	122470
#	143757
#	158432
#
# Disc length: 2255 seconds
#
# Revision: 1
# Processed by: cddbd v1.5.1PL2 Copyright (c) Steve Scherf et al.
# Submitted via: audiograbber 1.83.01
#
DISCID=7308cd0a
DTITLE=Spencers - A Better  Way
DYEAR=1996
DGENRE=Southern Gospel
TTITLE0=He Still Rolls The Stone Away
TTITLE1=Running As Fast As I Can
TTITLE2=The Love Of God
TTITLE3=Had It Not Been
TTITLE4=God Moves Mountains
TTITLE5=Down Memory Lane
TTITLE6=It Must Have Been A Hard Hill To Climb
TTITLE7=I Will Serve Thee
TTITLE8=The Victory Song
TTITLE9=I've Found A Better Way
EXTD=
EXTT0=
EXTT1=
EXTT2=
EXTT3=
EXTT4=
EXTT5=
EXTT6=
EXTT7=
EXTT8=
EXTT9=
PLAYORDER=
